<?xml version="1.0" encoding="utf-8"?>
<!-- Generator: Adobe Illustrator 26.4.1, SVG Export Plug-In . SVG Version: 6.00 Build 0)  -->
<svg version="1.1" id="Слой_1" xmlns="http://www.w3.org/2000/svg" xmlns:xlink="http://www.w3.org/1999/xlink" x="0px" y="0px"
	 viewBox="0 0 400.7 390.8" style="enable-background:new 0 0 400.7 390.8;" xml:space="preserve">
<style type="text/css">
	.st0{fill:url(#SVGID_1_);}
	.st1{fill:url(#SVGID_00000105419769644716331710000004900220784029189248_);}
	.st2{fill:url(#SVGID_00000132066690375465151970000012062801097092630685_);}
	.st3{fill:url(#SVGID_00000062171092495928583810000004342655968983752093_);}
</style>
<linearGradient id="SVGID_1_" gradientUnits="userSpaceOnUse" x1="35.889" y1="105.6324" x2="272.0055" y2="105.6324">
	<stop  offset="0" style="stop-color:#00CDF6"/>
	<stop  offset="1" style="stop-color:#0D89E2"/>
</linearGradient>
<path class="st0" d="M37.7,88.6c0,0-1.8,10.5-1.8,14.3c-0.1,5.7,0.3,9.3,0.4,12.1c0.1,3.1,2,10.6,2.9,13.4c1.3,3.8,3.2,8.1,4.5,10.2
	c1.8,2.9,2.9,4.4,5.1,6.2c1.6,1.3,5.6,4.4,7.4,5.2c3.9,1.8,11.6,3.1,15.5,3.5c31.9,3.2,95,8.1,127.5,5.9c3.1-0.2,8.6-0.4,12.2-1.3
	c2.6-0.7,9.2-3.8,11.6-5.5c3.3-2.3,10.3-7.7,13.4-10.6c2.6-2.4,11-12.8,11-12.8l7.8-11.3c0,0,5.2-9.3,6.6-12.9
	c4.7-12.5,7-21.9,8-26.9c1.9-9.4,2.2-26.4,2.2-26.4s-7.6,22.9-10.3,28.6c-1.9,4.1-6.6,11.5-9.1,14.9c-2.8,3.9-8.9,11-12.1,14.2
	c-4.6,4.7-13.4,10.7-18.5,14c-5.5,3.5-17.4,6.5-23.4,6.5c-38.1,0.4-137.3-7-138.4-7.3c-1.6-0.3-4.7-1.9-7.1-4.6
	c-2.6-3-6.1-6.6-7.8-10"/>
<linearGradient id="SVGID_00000045611197940074226340000007285190933981213621_" gradientUnits="userSpaceOnUse" x1="35.889" y1="159.793" x2="272.0055" y2="159.793">
	<stop  offset="0" style="stop-color:#00CDF6"/>
	<stop  offset="1" style="stop-color:#0D89E2"/>
</linearGradient>
<path style="fill:url(#SVGID_00000045611197940074226340000007285190933981213621_);" d="M37.7,142.8c0,0-1.8,10.5-1.8,14.3
	c-0.1,5.7,0.3,9.3,0.4,12.1c0.1,3.1,2,10.6,2.9,13.4c1.3,3.8,3.2,8.1,4.5,10.2c1.8,2.9,2.9,4.4,5.1,6.2c1.6,1.3,5.6,4.4,7.4,5.2
	c3.9,1.8,11.6,3.1,15.5,3.5c31.9,3.2,95,8.1,127.5,5.9c3.1-0.2,8.6-0.4,12.2-1.3c2.6-0.7,9.2-3.8,11.6-5.5
	c3.3-2.3,10.3-7.7,13.4-10.6c2.6-2.4,11-12.8,11-12.8l7.8-11.3c0,0,5.2-9.3,6.6-12.9c4.7-12.5,7-21.9,8-26.9
	c1.9-9.4,2.2-26.4,2.2-26.4s-7.6,22.9-10.3,28.6c-1.9,4.1-6.6,11.5-9.1,14.9c-2.8,3.9-8.9,11-12.1,14.2c-4.6,4.7-13.4,10.7-18.5,14
	c-5.5,3.5-17.4,6.5-23.4,6.5c-38.1,0.4-137.3-7-138.4-7.3c-1.6-0.3-4.7-1.9-7.1-4.6c-2.6-3-6.1-6.6-7.8-10"/>
<linearGradient id="SVGID_00000107561159620652762900000002341279057126198182_" gradientUnits="userSpaceOnUse" x1="115.1131" y1="285.1468" x2="351.2296" y2="285.1468">
	<stop  offset="0" style="stop-color:#00669C"/>
	<stop  offset="1" style="stop-color:#0D89E2"/>
</linearGradient>
<path style="fill:url(#SVGID_00000107561159620652762900000002341279057126198182_);" d="M116.9,268.1c0,0-1.8,10.5-1.8,14.3
	c-0.1,5.7,0.3,9.3,0.4,12.1c0.1,3.1,2,10.6,2.9,13.4c1.3,3.8,3.2,8.1,4.5,10.2c1.8,2.9,2.9,4.4,5.1,6.2c1.6,1.3,5.6,4.4,7.4,5.2
	c3.9,1.8,11.6,3.1,15.5,3.5c31.9,3.2,95,8.1,127.5,5.9c3.1-0.2,8.6-0.4,12.2-1.3c2.6-0.7,9.2-3.8,11.6-5.5
	c3.3-2.3,10.3-7.7,13.4-10.6c2.6-2.4,11-12.8,11-12.8l7.8-11.3c0,0,5.2-9.3,6.6-12.9c4.7-12.5,7-21.9,8-26.9
	c1.9-9.4,2.2-26.4,2.2-26.4s-7.6,22.9-10.3,28.6c-1.9,4.1-6.6,11.5-9.1,14.9c-2.8,3.9-8.9,11-12.1,14.2c-4.6,4.7-13.4,10.7-18.5,14
	c-5.5,3.5-17.4,6.5-23.4,6.5c-38.1,0.4-137.3-7-138.4-7.3c-1.6-0.3-4.7-1.9-7.1-4.6c-2.6-3-6.1-6.6-7.8-10"/>
<linearGradient id="SVGID_00000119117372504653953270000007665233437830730641_" gradientUnits="userSpaceOnUse" x1="115.1131" y1="230.9862" x2="351.2296" y2="230.9862">
	<stop  offset="0" style="stop-color:#0068A0"/>
	<stop  offset="1" style="stop-color:#0D89E2"/>
</linearGradient>
<path style="fill:url(#SVGID_00000119117372504653953270000007665233437830730641_);" d="M116.9,213.9c0,0-1.8,10.5-1.8,14.3
	c-0.1,5.7,0.3,9.3,0.4,12.1c0.1,3.1,2,10.6,2.9,13.4c1.3,3.8,3.2,8.1,4.5,10.2c1.8,2.9,2.9,4.4,5.1,6.2c1.6,1.3,5.6,4.4,7.4,5.2
	c3.9,1.8,11.6,3.1,15.5,3.5c31.9,3.2,95,8.1,127.5,5.9c3.1-0.2,8.6-0.4,12.2-1.3c2.6-0.7,9.2-3.8,11.6-5.5
	c3.3-2.3,10.3-7.7,13.4-10.6c2.6-2.4,11-12.8,11-12.8l7.8-11.3c0,0,5.2-9.3,6.6-12.9c4.7-12.5,7-21.9,8-26.9
	c1.9-9.4,2.2-26.4,2.2-26.4s-7.6,22.9-10.3,28.6c-1.9,4.1-6.6,11.5-9.1,14.9c-2.8,3.9-8.9,11-12.1,14.2c-4.6,4.7-13.4,10.7-18.5,14
	c-5.5,3.5-17.4,6.5-23.4,6.5c-38.1,0.4-137.3-7-138.4-7.3c-1.6-0.3-4.7-1.9-7.1-4.6c-2.6-3-6.1-6.6-7.8-10"/>
</svg>
